PathFileType	4	(X/Y/Z)	C:/Users/beibeiliu/ov580/test_trc\sequence.29_training_dense_right.trc
DataRate	CameraRate	NumFrames	NumMarkers	Units	OrigDataRate	OrigDataStartFrame	OrigNumFrames
120	120	17	19	mm	120	199	396
Frame#	Time	ThumbCMC			ThumbMCP			ThumbIP			ThumbTip			IndexMCP			IndexPIP			IndexTip			MiddleMCP			MiddlePIP			MiddleTip			RingMCP			RingPIP			RingTip			PinkyMCP			PinkyPIP			PinkyTip			BackHand1			BackHand2			BackHand3	
		X0	Y0	Z0	X1	Y1	Z1	X2	Y2	Z2	X3	Y3	Z3	X4	Y4	Z4	X5	Y5	Z5	X6	Y6	Z6	X7	Y7	Z7	X8	Y8	Z8	X9	Y9	Z9	X10	Y10	Z10	X11	Y11	Z11	X12	Y12	Z12	X13	Y13	Z13	X14	Y14	Z14	X15	Y15	Z15	X16	Y16	Z16	X17	Y17	Z17	X18	Y18	Z18	
198	1.65	239.107	33.5613	59.6489	254.885	42.3627	44.9371	270.801	44.8523	26.4822	287.64	44.428	19.6428	238.54	67.5035	-0.414877	237.295	92.85	-10.3936	241.252	117.206	-16.1709	211.561	77.9527	-0.200553	217.509	105.149	-0.213794	214.763	131.776	10.3492	196.69	79.9261	14.8756	205.223	96.968	37.235	212.753	80.0144	53.2119	181.886	77.6628	23.4093	195.172	87.2565	43.8775	204.631	67.9652	52.1198	194.717	33.1747	30.9025	198.612	17.8944	50.912	219.867	23.7072	41.1095	
199	1.65833	239.701	33.4695	55.8522	259.917	41.0828	40.2637	270.739	45.0937	23.2403	285.467	45.7875	17.9617	235.792	70.7899	-2.39554	241.682	89.41	-9.03298	239.558	112.253	-15.44	213.941	78.0236	-1.28515	216.957	101.72	-0.916593	212.162	131.005	12.2081	197.254	80.0465	14.6082	207.857	95.8201	35.2416	211.085	75.7953	55.4963	180.84	75.0244	23.856	196.747	87.2967	43.5109	206.156	65.7165	50.7376	192.865	33.5133	27.7867	197.281	16.7424	54.2126	225.027	21.5765	39.73	
200	1.66667	240.773	33.2896	58.9375	257.556	42.1809	45.6312	272.476	45.6406	25.0093	286.9	46.0854	19.9626	239.237	67.8492	-0.654736	240.243	90.8844	-10.4712	240.094	112.714	-15.8698	213.505	78.2656	-0.654081	214.231	102.316	-1.06995	212.39	129.702	11.0194	197.054	80.5331	13.918	204.274	95.645	36.8412	209.853	74.6319	56.5876	180.573	75.7933	23.6723	198.16	86.3136	42.3403	206.463	64.4762	51.9334	198.946	30.9703	28.302	195.587	15.4191	55.7584	222.515	22.2816	39.4295	
201	1.675	243.745	31.7339	61.8801	260.777	41.4727	43.0041	272.049	44.9377	29.171	286.773	46.59	20.1372	240.341	66.887	0.0904848	240.02	90.4795	-10.8605	242.153	112.296	-15.803	213.745	76.6914	0.14386	219.629	102.752	-1.53219	215.724	132.138	11.5648	196.74	77.9501	14.2807	202.588	96.7578	34.277	214.193	78.0458	54.8437	182.969	73.9469	23.7752	195.272	88.2705	41.673	206.111	64.6719	51.5896	194.596	32.2148	29.2611	199.77	15.9611	52.6055	226.4	23.0517	43.1789	
202	1.68333	243.521	33.52	59.0148	259.814	42.7659	45.0812	274.46	45.8521	26.4955	285.744	47.4787	16.5081	243.21	69.8968	-1.91316	241.887	91.0539	-10.0013	241.826	113.665	-16.4551	219.373	74.5653	1.06975	218.028	103.998	-1.40667	219.532	128.438	8.86626	202.359	80.1133	13.3173	206.494	96.4961	36.3236	212.787	79.9999	55.3116	183.604	76.2776	23.6948	198.839	87.7904	40.3244	206.853	65.6978	53.7627	197.209	29.4796	30.3854	197.219	18.1375	52.8784	225.334	23.2821	41.6026	
203	1.69167	247.521	32.855	57.7193	262.99	41.3788	45.4251	273.461	46.9412	25.8327	288.422	47.3057	17.6237	242.909	71.4041	-1.70644	245.185	90.8121	-9.81437	246.107	117.213	-16.5406	218.533	79.4111	-1.08179	219.495	103.553	-0.989155	216.293	130.934	9.05065	199.861	80.7527	14.0011	208.304	97.1882	37.2897	211.802	77.9569	57.1637	187.418	78.9914	22.5829	200.489	86.9427	40.961	208.13	68.6263	52.9996	198.991	31.1124	28.8802	196.55	15.5569	55.2511	227.096	22.6159	38.508	
204	1.7	245.489	33.6683	60.9804	260.447	43.2869	43.7128	275.574	46.2398	26.8468	287.63	48.5173	20.0715	240.351	71.8474	-3.31201	244.983	93.1136	-10.3949	242.416	117.952	-17.2441	217.185	79.0684	-0.340067	216.737	104.224	-1.11242	219.688	131.487	7.48389	202.667	83.7013	13.4949	205.763	98.5987	37.7434	215.627	80.8945	56.8904	187.062	76.5866	22.2433	196.647	89.3664	42.4678	209.364	72.1351	53.8796	199.472	33.1347	30.5924	199.46	17.7995	52.3319	227.161	23.928	40.2571	
205	1.70833	246.694	34.2536	59.1829	265.132	41.1145	46.9262	276.65	46.4891	28.6708	288.129	48.6059	17.8981	241.387	72.3942	-2.40061	244.877	94.101	-11.0607	245.179	112.205	-16.3669	217.662	75.7023	0.759545	217.905	102.587	-1.64344	217.315	133.811	7.52598	200.366	83.3131	12.3161	207.904	99.2125	31.3909	216.044	86.1741	54.3762	188.45	73.132	21.1588	197.49	92.0623	37.0638	211.761	77.1443	54.7653	198.195	31.5227	28.4202	203.971	15.8925	53.6402	227.031	23.2273	38.7541	
206	1.71667	248.248	33.1722	57.5966	265.668	42.8657	43.0366	279.962	47.6024	25.5122	291.591	48.6712	18.7589	241.555	70.983	-3.14936	245.125	91.2393	-10.432	244.61	114.272	-18.2709	219.212	73.9385	-0.888661	217.542	101.311	-4.12784	219.234	130.791	4.28703	201.138	77.8166	10.8341	207.027	100.539	31.5296	213.977	87.792	56.2695	187.973	72.3827	18.7981	198.857	93.6966	31.0358	209.932	87.8625	50.7018	204.142	31.1553	28.7468	202.373	17.8629	51.0428	227.451	24.9132	38.7577	
207	1.725	249.217	33.8335	60.2504	263.778	44.8332	42.2356	281.141	48.2567	26.2862	292.33	51.0212	20.2457	244.478	70.2441	-3.23528	243.234	90.4964	-12.6368	244.122	111.864	-17.4009	220.466	77.3747	-3.24365	218.125	99.4277	-5.95088	219.393	130.032	3.41597	201.643	74.7585	9.42793	206.743	99.9209	28.0074	213.838	92.4252	50.0362	188.104	67.585	16.1405	190.99	94.4904	22.8871	206.191	98.885	40.1355	204.775	28.6751	28.8644	202.962	13.481	54.1275	230.059	21.3535	40.6596	
208	1.73333	250.921	35.0087	58.7695	266.03	46.1484	45.2682	279.017	51.484	25.5569	294.541	52.8805	17.0757	245.154	67.622	-2.49768	245.438	87.7025	-10.6427	242.622	117.038	-17.0916	221.684	74.6252	-4.1062	216.027	98.9238	-6.7969	214.723	126.066	5.46292	203.768	73.1091	6.78804	206.501	95.7258	19.3729	213.063	90.954	47.4811	185.367	67.7866	11.819	182.905	87.63	12.4233	196.182	106.019	21.0565	206.905	28.7858	30.118	207.015	14.0396	51.0396	230.464	23.3279	37.2328	
209	1.74167	253.204	35.5821	59.9555	265.164	48.7139	42.6973	276.735	54.5832	27.238	293.019	57.9594	16.5536	243.836	66.0769	-0.962058	240.782	91.3161	-9.38008	237.423	114.548	-9.63834	218.654	70.9269	-1.90164	214.503	99.9401	-2.60933	216.846	123.225	16.8066	202.718	72.3317	6.38354	204.966	96.5579	25.8416	213.53	85.1559	50.3741	183.172	61.817	10.5694	180.051	84.2817	4.34003	183.257	103.473	4.8431	203.152	27.9314	28.6987	205.171	14.6724	53.2628	229.149	22.8362	38.9845	
210	1.75	247.548	35.6004	60.6225	261.561	49.7513	40.9506	274.598	57.1023	24.7826	287.676	61.3216	20.0741	241.695	70.5231	-1.14552	236.65	92.9206	-4.46979	233.579	121.271	7.59041	216.59	76.1131	-0.696992	217.972	102.369	5.22814	215.323	117.276	29.9074	200.696	70.2155	8.24532	207.039	94.1381	25.2871	216.572	85.1475	48.5902	181.663	53.9365	13.0206	176.192	72.9199	-0.2721	174.835	92.6577	-7.16146	207.274	26.845	31.1556	207.875	11.1335	55.2256	231.929	20.5852	40.8913	
211	1.75833	251.901	36.8129	59.6696	265.982	49.2235	46.8717	278.377	56.668	27.7439	290.677	62.0338	19.5311	239.062	76.0272	1.99841	234.36	99.888	5.26878	229.35	118.836	28.6772	218.493	75.1279	2.96187	214.877	101.509	13.7032	215.903	110.338	43.7421	202.053	75.4455	9.80076	202.937	95.2789	29.259	212.4	82.9879	52.3026	179.941	53.725	10.2717	176.201	64.234	-0.552734	166.215	80.7642	-16.1098	207.208	27.4629	28.5134	205.264	13.8505	55.3691	230.489	21.6952	38.3817	
212	1.76667	251.429	38.1377	58.5346	260.717	51.0796	45.6498	277.709	57.9041	28.4933	289.769	63.2771	18.2378	237.652	78.2583	4.95077	232.358	100.513	13.858	229.002	110.611	43.9829	215.36	81.0748	6.44653	215.737	102.345	21.353	215.781	101.155	53.5843	196.319	78.2743	11.6816	204.785	95.6117	31.7653	213.153	81.1087	53.5166	178.231	55.0484	9.64598	172.602	64.7392	-3.52131	163.826	74.6047	-17.6906	205.865	27.1194	30.0222	208.219	16.2186	52.7325	232.014	23.6651	39.977	
213	1.775	248.454	38.8466	60.829	262.885	52.0543	42.5366	275.11	59.8771	26.4528	288.905	63.7295	15.6298	236.678	76.5267	8.07256	230.743	101.095	21.1784	230.045	98.2782	53.8849	215.147	78.2806	9.27207	213.325	102.049	29.8771	216.305	86.2297	61.388	200.443	78.3533	11.8512	202.617	94.1138	32.1252	214.86	75.609	53.3152	179.732	54.3088	11.365	171.015	64.8379	-1.63553	167.329	71.9268	-16.9816	204.159	26.0476	32.6415	205.475	13.7409	56.0485	232.238	22.4085	43.7979	
214	1.78333	249.111	38.5159	61.8002	258.053	51.8595	45.3443	275.15	58.8242	26.149	287.072	63.2102	20.4041	234.884	78.0665	8.65242	227.543	98.3941	25.438	231.099	86.1699	53.7424	216.105	79.5508	11.3826	211.016	97.9847	33.0539	221.255	78.4118	59.743	199.755	77.9573	11.789	203.194	93.4092	35.0457	211.12	74.4075	52.9914	176.364	54.2091	10.9404	171.847	65.8844	-4.16355	165.588	73.0117	-18.4937	200.884	27.7008	28.5803	202.288	12.9813	52.1855	227.893	23.0839	42.9638	
